# xmcd
#
# Track frame offsets:
# 150
# 18650
# 31726
# 47148
# 61028
# 76534
# 89275
# 104642
# 120134
# 133698
# 147181
# 161878
#
# Disc length: 2285 seconds
#
#
# Revision: 0
# Processed by: cddbd v1.5.1PL2 Copyright (c) Steve Scherf et al.
# Submitted via: FreeRIP 2.941 
#
DISCID=9108eb0c
DTITLE=Zillertaler Buam - Wahnsinn
DYEAR=2006
DGENRE=Folk
TTITLE0=Wahnsinn
TTITLE1=Wia ma san so samma
TTITLE2=Easy Rider
TTITLE3=Im Himmel schweben
TTITLE4=Jetzt mach ma Rock
TTITLE5=Heindl-Boarischer
TTITLE6=Heavy fetztig supersteil
TTITLE7=Unendlich tief
TTITLE8=Meinungsumfragen
TTITLE9=Verlorene Liebe
TTITLE10=Musikanten aus Tirol
TTITLE11=Die Liab is a Bach
EXTD=
EXTT0=
EXTT1=
EXTT2=
EXTT3=
EXTT4=
EXTT5=
EXTT6=
EXTT7=
EXTT8=
EXTT9=
EXTT10=
EXTT11=
PLAYORDER=
